How to Make It in America follows two enterprising twenty-somethings hustling their way through New York City's fashion scene, determined to achieve their version of the American Dream. Trying to make a name for themselves in the city's competitive fashion scene, Ben Epstein and his friend and business partner Cam Calderon use their street knowledge and connections to make their way up. With the help of their well-connected friend Domingo and Cam's cousin Rene, who has ambitions of his own—a new energy drink called Rasta-Monsta—the burgeoning entrepreneurs set out to make it big.


General
Complete name                    : How.To.Make.It.In.America.S01.720p.BluRay.x264-REWARD/How.to.Make.It.in.America.S01E01.720p.BluRay.X264-REWARD.mkv
Format                           : Matroska
File size                        : 1.46 GiB
Duration                         : 28mn 25s
Overall bit rate                 : 7 339 Kbps
Writing application              : x264.exe
Writing library                  : mkv2rls v1.4 (date: 2011 mar 29)

Video
ID                               : 1
Format                           : AVC
Format/Info                      : Advanced Video Codec
Format profile                   : High@L4.1
Format settings, CABAC           : Yes
Format settings, ReFrames        : 5 frames
Codec ID                         : V_MPEG4/ISO/AVC
Duration                         : 28mn 25s
Bit rate                         : 5 820 Kbps
Width                            : 1 280 pixels
Height                           : 720 pixels
Display aspect ratio             : 16:9
Frame rate                       : 23.976 fps
Color space                      : YUV
Chroma subsampling               : 4:2:0
Bit depth                        : 8 bits
Scan type                        : Progressive
Bits/(Pixel*Frame)               : 0.263
Stream size                      : 1.13 GiB (77%)
Writing library                  : x264 core 116 r2074 2641b9e
Encoding settings                : cabac=1 / ref=5 / deblock=1:0:0 / analyse=0x3:0x113 / me=umh / subme=8 / psy=1 / psy_rd=1.00:0.00 / mixed_ref=1 / me_range=16 / chroma_me=1 / trellis=1 / 8x8dct=1 / cqm=0 / deadzone=21,11 / fast_pskip=1 / chroma_qp_offset=-2 / threads=12 / sliced_threads=0 / nr=0 / decimate=1 / interlaced=0 / bluray_compat=0 / constrained_intra=0 / bframes=3 / b_pyramid=2 / b_adapt=2 / b_bias=0 / direct=3 / weightb=1 / open_gop=0 / weightp=2 / keyint=240 / keyint_min=24 / scenecut=40 / intra_refresh=0 / rc_lookahead=50 / rc=2pass / mbtree=1 / bitrate=5820 / ratetol=1.0 / qcomp=0.60 / qpmin=0 / qpmax=69 / qpstep=4 / cplxblur=20.0 / qblur=0.5 / ip_ratio=1.40 / aq=1:1.00
Language                         : English

Audio
ID                               : 2
Format                           : DTS
Format/Info                      : Digital Theater Systems
Codec ID                         : A_DTS
Duration                         : 28mn 25s
Bit rate mode                    : Constant
Bit rate                         : 1 510 Kbps
Channel(s)                       : 6 channels
Channel positions                : Front: L C R, Side: L R, LFE
Sampling rate                    : 48.0 KHz
Bit depth                        : 24 bits
Compression mode                 : Lossy
Stream size                      : 307 MiB (21%)
Language                         : English

Text
ID                               : 3
Format                           : UTF-8
Codec ID                         : S_TEXT/UTF8
Codec ID/Info                    : UTF-8 Plain Text
Language                         : English

Menu
00:00:00.000                     : en:00:00:00.000
00:01:07.734                     : en:00:01:07.734
00:08:57.036                     : en:00:08:57.036
00:19:02.224                     : en:00:19:02.224
00:27:10.379                     : en:00:27:10.379